<?xml version="1.0" encoding="UTF-8" standalone="no"?>
<!-- Created with Inkscape (http://www.inkscape.org/) -->

<svg
   version="1.1"
   id="svg2"
   width="354.45218"
   height="245.183"
   viewBox="0 0 354.45218 245.183"
   sodipodi:docname="zephly.svg"
   inkscape:version="1.2.1 (9c6d41e410, 2022-07-14, custom)"
   xmlns:inkscape="http://www.inkscape.org/namespaces/inkscape"
   xmlns:sodipodi="http://sodipodi.sourceforge.net/DTD/sodipodi-0.dtd"
   xmlns="http://www.w3.org/2000/svg"
   xmlns:svg="http://www.w3.org/2000/svg">
  <defs
     id="defs6" />
  <sodipodi:namedview
     id="namedview4"
     pagecolor="#ffffff"
     bordercolor="#999999"
     borderopacity="1"
     inkscape:showpageshadow="0"
     inkscape:pageopacity="0"
     inkscape:pagecheckerboard="false"
     inkscape:deskcolor="#d1d1d1"
     showgrid="false"
     inkscape:zoom="5.6568543"
     inkscape:cx="204.26547"
     inkscape:cy="137.88582"
     inkscape:window-width="2560"
     inkscape:window-height="1371"
     inkscape:window-x="1600"
     inkscape:window-y="32"
     inkscape:window-maximized="1"
     inkscape:current-layer="g8" />
  <g
     inkscape:groupmode="layer"
     inkscape:label="Image"
     id="g8"
     transform="translate(109.96907,-45.293983)">
    <path
       style="fill:#000000;stroke-width:0.318204"
       d="m 244.09938,170.97271 c -0.57652,2.78789 -1.38555,4.36821 -3.23805,6.32525 -2.57448,2.71975 -5.40927,3.94059 -13.40468,5.7729 -2.01264,0.46124 -4.4469,1.04096 -5.40947,1.28826 -6.41677,1.64861 -14.51054,2.54402 -20.36384,2.25286 -6.01751,-0.29933 -6.49361,-0.34271 -6.96608,-0.63471 -0.34704,-0.21449 -1.81109,-0.62146 -6.39074,-1.77652 -0.60764,-0.15326 -1.16755,-0.21588 -1.24424,-0.13919 -0.0768,0.0767 0.0162,0.67737 0.20642,1.33479 1.10486,3.81808 0.77874,8.21934 -1.04345,14.08258 -1.46594,4.71673 -2.99507,7.84426 -5.13066,10.49353 -2.61333,3.24195 -7.61443,8.28049 -8.21895,8.28049 -3.90806,3.01331 -8.5096,5.77654 -12.22703,7.79834 -2.75232,1.49896 -6.04701,2.90976 -9.19833,3.82682 -1.10219,0.3171 -2.07719,0.69501 -2.16666,0.83978 -0.0895,0.14477 -0.37211,0.26322 -0.62809,0.26322 -0.25598,0 -0.98541,0.25593 -3.19485,1.27281 -2.20944,1.01688 -6.01183,2.78697 -8.23482,3.31566 -4.35166,1.56702 -10.5299,2.92455 -14.00097,3.36492 -1.81698,0.23412 -5.31101,0.48467 -7.42097,-0.0159 -1.47687,-0.33457 -2.3693,-3.53476 -1.92877,-4.88343 0.44053,-1.34867 1.17618,-2.87449 2.06526,-4.56564 0.24371,-0.24372 0.4431,-0.61754 0.4431,-0.83071 0,-0.21318 1.43598,-1.67066 3.19109,-3.23886 1.75509,-1.56819 3.86717,-3.45667 4.6935,-4.19661 0.82633,-0.73995 0.21759,0.91626 1.84906,-1.35237 1.63147,-2.26863 8.14212,-7.64839 11.1031,-10.78831 0.35311,-0.41684 1.28637,-1.34391 2.07393,-2.06014 5.16836,-5.53553 14.2737,-17.44002 16.44787,-21.45027 2.17417,-4.01025 3.23999,-6.92475 3.90841,-8.39504 0.66842,-1.47028 0.10021,-1.22538 -0.32167,-1.22538 -0.18175,0 -0.97957,1.37059 -1.77295,3.04576 -0.79339,1.67517 -1.65395,3.28608 -1.91237,3.57979 -0.25841,0.29371 -1.32212,1.82276 -2.36378,3.39787 -2.56409,3.87723 -2.73267,4.1146 -4.83253,6.80503 -1.40774,2.11517 -2.80786,4.03047 -3.73862,5.12235 -1.68348,1.9754 -3.39933,3.93495 -5.584,6.28919 -5.48956,5.93447 -10.55598,10.40822 -15.84587,13.99225 -1.19551,0.80999 -2.58331,1.85538 -3.08399,2.32309 -2.05844,1.92288 -3.13154,2.27928 -4.33167,1.43868 -0.89073,-0.6239 -1.16298,-2.78587 -0.61322,-4.86988 0.23628,-0.89568 0.35283,-1.70527 0.25901,-1.7991 -0.0939,-0.0938 -0.0187,-0.35361 0.16696,-0.57731 0.18565,-0.22369 0.38504,-0.90274 0.44309,-1.50899 0.0992,-1.03617 0.3943,-1.29373 4.92009,-4.29448 2.64799,-1.75571 5.4491,-3.76496 6.2247,-4.465 0.77559,-0.70005 2.18884,-1.91708 3.14056,-2.70451 3.86312,-3.19625 11.44078,-11.11135 14.47052,-15.11491 1.72174,-2.27516 3.78372,-4.95583 4.58217,-5.95703 2.63729,-3.307 2.88785,-3.68541 4.52347,-6.83191 0.89237,-1.71669 1.74762,-3.25729 1.90056,-3.42355 0.15294,-0.16627 0.27807,-0.5376 0.27807,-0.8252 0,-0.42423 -0.5554,-0.58349 -2.94339,-0.84406 -2.5088,-0.27376 -3.23982,-0.49642 -4.95107,-1.50812 -2.63233,-1.55623 -3.98056,-2.76824 -5.31393,-4.77705 -2.04304,-3.07797 -2.93641,-5.90893 -3.21853,-10.1991 -0.32259,-4.9056 1.51977,-10.21888 4.30188,-12.4064 0.44765,-0.35198 1.6048,-1.33325 2.57148,-2.1806 4.82351,-4.22819 9.54045,-5.66136 14.80651,-4.49874 1.39867,0.30879 2.61464,0.66501 2.70215,0.79158 0.32134,0.46485 2.83428,1.5755 2.99099,1.32194 0.35244,-0.57027 0.83509,-12.62467 0.66601,-16.63408 -0.19043,-4.51585 -0.42648,-6.3853 -1.40952,-11.16295 -0.63922,-3.10667 -2.34015,-8.753846 -3.04841,-10.120909 -0.22667,-0.437531 -0.63921,-1.439873 -0.91676,-2.227427 -0.27753,-0.787555 -1.04578,-2.361331 -1.7072,-3.497279 -1.16497,-2.000717 -1.25218,-2.073237 -2.78686,-2.317061 -4.65317,-0.739287 -18.33085,1.457423 -27.52202,4.420189 -1.48531,0.478788 -2.84376,0.903958 -3.01878,0.944807 -3.12693,0.72997 -17.52633,7.43505 -21.79845,10.15044 -1.31178,0.83377 -2.88621,1.82902 -3.49875,2.21166 -2.636238,1.6468 -8.56531,5.70458 -9.263141,6.33958 -0.41815,0.38051 -2.263792,1.97362 -4.101419,3.54025 -1.837627,1.56662 -4.474115,3.94541 -5.858859,5.28622 -2.517708,2.43781 -2.517708,2.43781 -0.60412,4.78296 1.05248,1.28984 2.137962,2.78081 2.412184,3.31328 0.661964,1.28535 1.292883,4.69017 1.235735,6.66875 -0.09785,3.38721 -1.815174,8.56678 -3.770676,11.37253 -0.578136,0.82952 -1.055223,1.61707 -1.060195,1.75012 -0.01253,0.33527 -2.362922,2.94665 -2.652169,2.94665 -0.129291,0 -0.693148,0.4794 -1.253017,1.06532 -1.570525,1.64363 -3.154703,2.23556 -5.28292,1.97398 -0.979491,-0.1204 -2.419135,-0.29339 -3.199211,-0.38444 -0.780077,-0.0911 -1.706896,-0.36765 -2.059575,-0.61469 -0.352699,-0.24704 -0.873589,-0.44915 -1.157546,-0.44915 -0.283957,0 -0.775462,-0.28639 -1.092234,-0.63641 -0.316762,-0.35003 -0.768532,-0.63641 -1.003924,-0.63641 -0.235391,0 -0.427994,-0.14319 -0.427994,-0.3182 0,-0.17502 -0.143191,-0.31821 -0.318204,-0.31821 -0.175012,0 -0.609807,-0.2916 -0.966216,-0.64801 -0.356408,-0.35641 -0.763709,-0.57651 -0.90511,-0.48911 -0.141402,0.0874 -0.690592,1.05915 -1.220412,2.15948 -3.713667,7.71249 -4.921748,11.08736 -5.500183,15.36514 -0.165655,1.22508 -0.445923,2.87179 -0.622824,3.65934 -0.648857,2.88876 -1.444844,12.05866 -1.436312,16.54661 0.006,3.17297 0.174226,5.3096 0.53854,6.84139 1.065137,4.47839 1.223493,5.10016 1.418204,5.56856 0.441697,1.06251 0.396462,1.68636 -0.181088,2.49746 -0.827906,1.16268 -2.667284,1.81202 -3.80177,1.3421 -1.126501,-0.46661 -1.570833,-1.57464 -1.793446,-4.47225 -0.100682,-1.31054 -0.321495,-2.89692 -0.4907,-3.5253 -1.200464,-4.45816 -1.643921,-12.36222 -0.959415,-17.10037 0.169215,-1.1713 0.45879,-3.63313 0.643508,-5.47076 0.184717,-1.83764 0.54744,-4.45089 0.80605,-5.80723 0.25862,-1.35634 0.696349,-3.64741 0.972739,-5.09126 0.439489,-2.29584 1.505194,-5.5961 3.211035,-9.94387 1.00975,-2.57358 5.543359,-11.5301 7.087016,-14.00097 2.054523,-3.28858 5.821101,-8.64209 6.940244,-9.86431 0.480756,-0.52503 1.661631,-1.88536 2.624158,-3.02293 0.962526,-1.13758 2.30648,-2.67276 2.986551,-3.41151 0.680062,-0.73876 1.415759,-1.59791 1.634862,-1.90922 0.952842,-1.35387 8.578119,-8.55459 12.561663,-11.86228 0.948476,-0.78756 2.446441,-2.07628 3.32882,-2.86384 1.431977,-1.27809 2.954105,-2.29244 10.672151,-7.11187 1.13757,-0.710346 3.03983,-1.914837 4.22723,-2.676667 1.18741,-0.76181 3.0489,-1.789091 4.13665,-2.282824 1.08775,-0.493733 3.26647,-1.50419 4.84157,-2.245465 8.67815,-4.084077 15.05645,-6.218081 26.57502,-8.891252 6.95537,-1.414122 14.56383,-3.034152 20.96972,-3.106435 3.95081,0.06275 3.95081,0.06275 4.53825,1.115314 0.43374,0.777213 0.57015,1.609754 0.52137,3.182039 -0.0595,1.915179 0.0665,2.40397 1.252,4.858227 1.49987,3.105202 3.27666,8.235423 4.06927,11.749473 0.29607,1.31259 0.74976,3.24568 1.0082,4.29575 0.58154,2.36278 1.09861,13.33843 0.8659,18.38019 -0.19247,4.17001 -0.87645,10.55552 -1.43342,13.38208 -1.40161,6.06006 -1.64478,6.82392 -3.21126,12.46805 -0.76119,2.76096 -1.01376,3.5568 -1.58751,5.00231 -0.32791,0.82613 -0.68563,2.15456 -0.79494,2.95207 -0.10931,0.79751 -0.32194,1.52615 -0.47251,1.61921 -0.15056,0.0931 -0.27376,0.41345 -0.27376,0.71198 0,0.29854 -0.28638,1.07712 -0.63641,1.73019 -0.35002,0.65307 -0.6364,1.41803 -0.6364,1.69992 0,0.28188 -0.41584,1.39213 -0.92407,2.46723 -1.68199,3.55804 -2.89438,6.33446 -2.89438,6.62826 0,0.15937 0.89495,-0.20754 1.98877,-0.81535 1.09383,-0.60781 2.91952,-1.41536 4.0571,-1.79457 1.13758,-0.3792 2.11285,-0.73291 2.16726,-0.78603 0.0544,-0.0531 -0.21101,-1.11697 -0.58982,-2.36413 -0.84944,-2.79659 -0.74224,-5.84023 0.28122,-7.9847 0.70231,-1.47156 2.85469,-3.4288 5.77113,-5.24794 0.84175,-0.52504 2.51222,-1.60751 3.71216,-2.40549 2.59544,-1.72605 6.34481,-3.33962 8.73194,-3.7579 3.2004,-0.56078 11.25251,-1.88447 13.76145,-2.26225 5.93434,-0.89356 16.68607,-0.5955 22.06903,0.61179 5.16118,1.15753 7.33661,2.08812 14.4794,6.19374 0.82096,0.47188 2.27537,1.70342 3.23205,2.73676 3.72423,4.02258 5.29915,10.02931 4.12205,15.72119 z m -9.45244,-10.57224 c -0.97857,-1.93114 -3.0469,-3.94964 -5.19958,-5.07435 -4.84295,-3.29226 -11.12066,-4.26387 -15.19617,-4.42854 -3.31247,-0.125 -6.35746,-0.021 -9.95081,0.33987 -5.6718,0.56961 -11.54034,1.76289 -15.02152,2.8421 -2.53325,0.78535 -3.78236,1.79844 -5.20555,2.62743 -1.83662,1.06981 -2.49248,1.84279 -4.06342,2.91652 -0.68432,0.46772 -1.30586,1.20208 -1.55172,1.34827 -0.41215,0.24505 -1.77302,1.4185 -2.1182,2.74914 -0.33497,1.2913 -0.24551,2.74843 0.56292,4.34806 0.78246,1.54824 4.84012,5.58773 6.76188,6.73159 1.33359,0.79379 6.83409,3.55782 7.99395,4.01701 4.81769,1.90737 12.44603,2.28238 18.77402,0.92295 0.70005,-0.15039 2.63314,-0.55917 4.29576,-0.9084 3.26235,-0.68525 8.92249,-2.05831 10.97803,-2.66311 6.93009,-1.99235 11.9365,-9.37057 8.94041,-15.76854 z m -43.91372,103.85548 c -0.6079,1.94132 -2.11529,4.5382 -3.38413,5.82997 -5.82307,5.92839 -10.01276,8.83723 -17.32823,12.03079 -6.08272,2.88807 -13.24215,4.75902 -17.66032,5.65082 -3.76276,0.75641 -8.34489,1.47613 -10.18252,1.59937 -6.32751,0.42434 -15.15756,-0.22126 -18.09926,-0.65168 -4.06143,-0.49726 -6.72856,-1.49544 -10.22088,-3.13295 -2.40241,-1.19581 -4.12846,-2.32338 -6.34908,-4.56848 -2.22062,-2.2451 -4.95339,-11.16282 -3.92842,-15.15228 0.88704,-3.4526 2.377,-6.15766 3.56135,-7.96194 3.77879,-5.47816 10.55101,-8.82465 16.73957,-11.22975 3.86248,-1.47559 6.13081,-2.23377 9.16102,-3.0983 3.03021,-0.86453 7.83533,-1.58173 11.20403,-1.94784 5.36278,-0.58823 19.99176,-0.68412 24.18349,-0.15849 1.57511,0.1975 3.79458,0.57751 4.93216,0.84445 2.61246,0.61305 9.97505,4.23545 11.47968,5.64804 1.45549,1.36645 4.11231,4.62202 4.11231,5.03909 0,0.17571 0.28224,0.71585 0.6272,1.20032 0.65086,0.91401 1.61667,5.57023 1.57893,7.61192 -0.0117,0.63338 -0.20381,1.73449 -0.4269,2.44694 z m -7.55304,-7.28259 c -2.23941,-2.96848 -5.54804,-6.03239 -8.35456,-7.49691 -4.05188,-1.27024 -5.16121,-0.9282 -9.38898,-1.41621 -0.5325,-0.25969 -3.4404,-0.36802 -9.54611,-0.35565 -7.61773,0.0154 -9.32809,0.11266 -12.917,0.73433 -4.22282,0.73146 -6.89034,1.38671 -8.5915,2.11044 -0.52504,0.22337 -1.88536,0.73362 -3.02294,1.1339 -5.56121,1.9568 -10.92936,5.14783 -13.27288,7.88988 -3.82336,4.47355 -5.59824,10.3344 -4.15766,13.72907 1.11943,2.63792 5.47142,6.31581 9.45275,7.98859 3.25678,1.36836 9.96097,1.76177 18.47852,1.08436 2.12168,-0.10617 4.45605,-0.58068 6.22836,-0.80237 4.86554,-0.60428 8.28995,-1.64211 16.04591,-4.86302 2.26556,-0.94085 2.82158,-1.21701 5.64811,-2.80525 4.12972,-2.32052 10.36046,-7.65622 12.03657,-10.30753 1.66354,-2.63142 1.76465,-5.85441 1.36141,-6.62365 -0.40324,-0.76925 0,2e-5 0,2e-5 z M 139.97149,116.74799 c -1.04991,3.45152 -4.49056,6.86035 -8.28254,9.3409 -3.79199,2.48055 -4.52137,3.29351 -9.25057,3.44751 -4.7292,0.154 -12.82609,-6.1024 -13.66757,-10.08581 -0.84148,-3.98341 0.035,-5.0819 1.07563,-7.52788 0.97559,-2.29319 5.69153,-6.23292 9.58001,-8.00319 4.01363,-1.82726 10.90346,-2.05608 13.12236,-0.43583 0.21681,0.15832 1.10951,0.66541 1.98379,1.12689 2.49583,1.3174 5.01994,3.68227 5.40323,5.06236 0.37587,1.35338 0.39869,5.88153 0.0357,7.07498 z m -17.03451,64.91152 c -0.20714,0.96257 -0.6649,2.3963 -1.01723,3.18609 -0.73085,1.63826 -5.7812,6.91384 -7.26636,7.59041 -1.54019,0.70164 -1.85802,0.85711 -2.86384,1.40091 -2.12197,1.14723 -5.07499,2.13977 -6.38666,2.14663 -0.51262,0.003 -1.11484,0.12089 -1.33829,0.26269 -0.74155,0.47061 -4.557621,-0.27459 -6.562852,-1.28156 -2.63422,-1.32286 -6.969887,-5.01971 -8.057975,-6.87073 -0.789076,-1.34234 -0.883095,-1.80795 -0.883095,-4.37339 0,-2.72439 0.05608,-2.96017 1.097753,-4.61396 0.603772,-0.95857 1.391327,-2.1167 1.750122,-2.57364 0.358804,-0.45694 0.867155,-1.15272 1.129673,-1.5462 0.392146,-0.58778 2.046707,-2.06843 5.021535,-4.49376 1.147443,-0.93549 5.442279,-3.40131 6.274699,-3.60253 4.70652,-1.13773 7.25245,-0.9382 10.56181,0.82778 6.75628,3.60535 9.72287,8.44779 8.54071,13.94126 z m -9.70645,48.36698 c -0.65443,3.50426 -2.3421,7.41076 -3.98661,9.22792 -0.29161,0.32223 -0.76889,1.0259 -1.06061,1.56373 -0.78756,1.45194 -4.57266,5.51383 -7.16463,7.68857 -2.936359,2.46368 -2.577216,2.20532 -5.142943,3.69981 -3.505642,2.04198 -4.35461,2.47958 -5.883142,3.03249 -1.947268,0.70437 -10.272694,2.81309 -12.31243,3.11856 -0.908939,0.13613 -1.808382,0.34378 -1.998787,0.46146 -0.190405,0.11767 -1.737801,0.35793 -3.43866,0.53391 -1.700869,0.17598 -4.094816,0.42725 -5.319901,0.55838 -2.244401,0.24024 -6.212214,-0.42124 -7.293401,-0.99988 -1.081187,-0.57864 -1.879512,-1.51941 -1.752259,-1.61792 0.127253,-0.0985 0.923497,-0.49678 1.886064,-0.97534 0.962567,-0.47856 2.217533,-1.14692 2.788808,-1.48522 0.571275,-0.3383 1.35883,-0.59592 1.750121,-0.57247 0.391291,0.0235 1.591258,-0.19312 2.666588,-0.48124 1.07534,-0.28814 2.684189,-0.52387 3.575229,-0.52387 0.89104,0 2.230698,-0.13874 2.977006,-0.30832 1.94504,-0.44194 6.363231,-1.28488 6.925507,-1.32131 0.617256,-0.04 3.062444,-0.83474 3.935913,-1.27928 5.384566,-2.7404 13.638535,-11.28062 16.615137,-17.19138 1.38154,-2.74336 2.05751,-6.74156 1.71335,-10.13417 -0.39388,-3.8828 -2.39067,-9.17467 -4.436672,-11.75796 -1.929727,-2.43648 -11.134429,-8.51226 -12.248342,-8.08482 -0.251709,0.0966 -0.630212,0.069 -0.841112,-0.0614 -0.376465,-0.23267 -3.503235,-0.52882 -5.044108,-0.47777 -1.681965,0.0557 -6.775365,1.40958 -9.081179,2.4138 -0.875061,0.38111 -2.593361,1.09612 -3.818446,1.58891 -3.425683,1.37801 -8.750615,4.01155 -8.750615,4.3278 0,0.15563 -0.147309,0.28296 -0.327353,0.28296 -0.180043,0 -1.767841,0.78287 -3.528413,1.73971 -1.760592,0.95684 -3.725361,1.91745 -4.366154,2.13469 -0.640803,0.21724 -1.308285,0.49204 -1.483297,0.61067 -0.175013,0.11863 -1.531973,0.52773 -3.015479,0.90912 -1.483506,0.38139 -2.873351,0.83955 -3.088556,1.01815 -0.215185,0.17859 -0.525484,0.24178 -0.689528,0.14039 -0.164034,-0.10139 -0.901511,0.0285 -1.638839,0.28865 -0.737318,0.26014 -1.443741,0.40922 -1.569829,0.33129 -0.126088,-0.078 -1.650155,0.0766 -3.386812,0.34335 -3.89395,0.59816 -10.920199,0.66079 -13.222503,0.11788 -1.608371,-0.37928 -5.016533,-1.89752 -5.80558,-2.58623 -0.196828,-0.1718 -0.787445,-0.59199 -1.312481,-0.93378 -0.893735,-0.58181 -1.612031,-1.11398 -6.3855849,-4.73087 -5.2519374,-3.97936 -14.759351,-7.07107 -20.3616181,-6.62136 -6.415586,0.51497 -15.302084,10.25852 -17.66086,19.36411 -1.672121,6.45493 -0.814055,13.80685 2.158506,18.49409 2.104033,3.31771 4.851624,5.06717 8.490454,6.58162 3.63883,1.51445 3.367496,1.32078 6.702327,1.65887 3.3348313,0.33809 5.5963808,0.23628 6.1461575,-0.44565 0.2084732,-0.2586 0.1632684,-1.2976 -0.1346301,-3.09408 -0.4676104,-2.81995 -0.3827892,-6.35833 0.2197894,-9.16806 0.5296204,-2.46953 2.4123729,-4.74389 5.00321833,-6.04385 1.17671774,-0.59042 2.35426087,-1.2464 2.61677907,-1.45774 0.6234707,-0.50191 3.5189963,-1.62634 5.727672,-2.22423 2.8381688,-0.76829 10.9068438,-1.53384 13.9639868,-1.32489 1.507949,0.10306 6.035124,0.003 10.060402,-0.22233 4.143701,-0.23198 8.975208,-0.31672 11.137135,-0.19532 2.100145,0.11792 5.250363,0.22968 7.000484,0.24835 2.019501,0.0216 4.052435,0.25994 5.564441,0.65255 2.004316,0.52045 2.589353,0.8352 3.68649,1.98332 1.258143,1.42288 2.222405,3.32224 2.848472,4.83274 1.433703,3.5761 1.279807,5.57955 -0.484356,10.53631 -1.764163,4.95676 -6.387414,14.15876 -9.638838,20.01911 -2.52555,4.55453 -5.596158,9.55207 -7.760389,13.22983 -2.164231,3.67776 -2.37394,3.91323 -3.490169,5.22469 -2.426057,1.93212 -5.300255,3.60485 -7.933528,4.89726 -3.014976,1.29273 -5.929147,2.85619 -9.203041,2.91656 -4.624973,-0.0669 -8.999457,-0.8436 -11.544943,-4.12881 -1.330211,-1.7492 -2.982305,-4.65641 -6.1480981,-10.81893 -0.3146737,-0.61254 -0.6719967,-1.40009 -0.7940577,-1.75012 -2.408455,-6.90663 -4.86247288,-13.18992 -6.4867145,-16.60859 -0.9365335,-1.97121 -0.9365335,-1.97121 -2.9369418,-1.16222 -1.1002196,0.44495 -2.787754,1.16734 -3.750072,1.60533 -2.1352769,0.97182 -6.0990039,0.89768 -10.5386229,0.50987 -4.439619,-0.38781 -5.580695,-1.43198 -9.190463,-2.72506 -3.609768,-1.29308 -5.883422,-3.97666 -8.559653,-7.46997 -2.676231,-3.49331 -5.077728,-11.6738 -4.696798,-17.57299 0.218725,-3.38712 1.08423,-7.31388 2.141631,-9.71642 0.580911,-1.31992 2.070712,-4.10337 3.63703,-6.79521 0.175012,-0.30077 1.197063,-1.61553 2.27123,-2.9217 2.944549,-3.58051 4.788222,-5.13314 9.025006,-7.60031 1.312591,-0.76434 2.959286,-1.78178 3.659335,-2.26097 0.700048,-0.47918 1.38171,-0.88516 1.514809,-0.90215 0.133089,-0.017 0.63426,-0.23266 1.113713,-0.47925 2.071776,-1.06551 6.891072,-2.39912 10.5336712,-2.91489 4.1605549,-0.58911 5.5140449,-0.49919 10.3848904,0.68993 2.0106207,0.49085 5.1999906,1.65653 5.7117619,2.08758 0.1662615,0.14004 0.4723735,0.25462 0.6802402,0.25462 1.0091033,0 5.8436343,2.65855 8.2788183,4.5526 6.532039,5.08054 10.777842,7.45762 14.070735,7.87769 3.917109,0.49971 10.737957,-0.69206 14.343963,-2.50625 1.971441,-0.99183 3.288666,-1.72626 3.531346,-1.96894 0.378703,-0.37871 12.276841,-6.04588 12.693211,-6.04588 0.119933,0 1.42438,-0.50117 2.898787,-1.11371 1.474398,-0.61254 2.894074,-1.11371 3.154842,-1.11371 0.260768,0 1.698085,-0.42115 3.194041,-0.93587 4.381,-1.50739 10.180683,-2.33143 15.457874,-2.19628 4.464639,0.11434 4.464639,0.11434 7.498384,1.58103 5.053366,2.44309 12.194143,7.70216 13.926843,10.2569 0.87373,1.28825 2.97126,5.9211 3.59473,7.93974 1.16006,3.75597 1.7924,10.89656 1.23112,13.90204 z M 84.536493,100.45661 c -0.891985,2.87174 -1.512263,3.83063 -3.657166,5.65364 -2.512856,2.13575 -6.688655,3.87278 -11.888185,4.94523 -1.182734,0.24394 -4.893975,0.36499 -7.796004,0.25427 -0.350024,-0.0133 -1.28077,0.0496 -2.068325,0.13995 -6.485591,0.74387 -8.358737,0.81762 -9.01903,0.35513 -1.711907,-1.19906 -1.151729,-0.26982 4.087636,6.78078 2.681077,3.60794 6.397608,7.70643 6.988214,7.70643 0.561849,0 0.973754,1.6177 0.870069,3.4171 -0.08452,1.46678 -0.224871,1.76521 -1.168673,2.48509 -1.072626,0.81811 -1.072626,0.81811 -2.358716,0.16201 -1.999911,-1.02028 -7.05982,-6.07215 -10.505022,-10.48833 -1.719832,-2.20455 -3.368307,-4.43784 -3.663272,-4.96288 -0.294965,-0.52504 -1.090763,-1.95319 -1.768428,-3.17369 -0.677675,-1.2205 -1.351521,-2.25888 -1.497447,-2.30752 -0.145917,-0.0486 -0.465801,0.37717 -0.710848,0.94627 -0.473915,1.10059 -2.300186,3.03017 -4.213367,4.4517 -2.633624,1.95683 -7.395405,2.98468 -10.002877,2.15916 -1.805985,-0.57177 -4.628921,-1.9644 -5.4864,-2.70658 -0.40756,-0.35276 -1.238907,-1.46101 -1.847462,-2.4628 -0.881077,-1.4504 -1.144022,-2.26962 -1.290923,-4.02182 -0.17545,-2.09275 -0.12399,-2.3213 1.051952,-4.67198 0.983707,-1.96641 1.742703,-2.93304 3.713349,-4.72918 1.36231,-1.241674 2.888734,-2.483266 3.392063,-2.759089 0.503329,-0.275823 1.250203,-0.714994 1.659721,-0.975921 0.409529,-0.260937 1.554565,-0.72454 2.544547,-1.030235 1.957471,-0.604458 3.932174,-0.354718 4.722215,0.597219 0.215225,0.259326 0.497591,0.405839 0.627478,0.325562 0.239011,-0.147716 -0.12866,-2.292244 -0.76192,-6.014142 -0.63326,-3.721898 -1.018378,-8.591541 -1.32331,-12.270119 -0.304932,-3.678578 -0.434554,-8.592239 -0.305774,-11.453955 0.12878,-2.861716 0.430162,-5.174432 0.723118,-6.273866 0.292827,-1.098947 0.446858,-2.083639 0.342298,-2.188199 -0.10456,-0.104569 -2.102114,0.839174 -4.439003,2.097202 C 17.888292,66.687022 11.643035,70.732705 5.2507348,76.143354 1.2596631,79.521525 -6.1868237,87.016329 -7.5848125,89.062191 c -0.4185573,0.612542 -1.3416965,1.829672 -2.0514007,2.704733 -1.1381158,1.403259 -2.4772368,3.345535 -4.9362758,7.159586 -1.871815,2.90325 -6.060719,11.04934 -7.607528,14.79423 -1.233209,2.98565 -2.843301,7.76983 -2.664281,7.9166 0.06841,0.0561 1.055154,-0.006 2.192733,-0.13757 2.908432,-0.33688 11.075541,-0.0508 12.409939,0.43472 0.2625183,0.0955 1.3559068,0.31745 2.4297453,0.49319 4.9125004,0.80395 10.3518072,5.07638 12.0092116,9.43293 1.639595,4.3097 1.5621024,7.25737 -0.3379026,12.85369 -1.2086813,2.56324 -3.17597133,4.85633 -4.8738586,6.79808 -0.7560508,0.86063 -8.4846338,6.09307 -9.9295017,6.91824 -0.563254,0.32168 -3.031098,1.30211 -4.592704,1.57778 -1.185616,0.20931 -2.530239,0.36371 -5.683022,-0.25935 -1.65824,-0.3277 -4.794139,-1.39255 -5.150537,-1.74895 -0.113231,-0.11323 -0.479155,-0.20589 -0.81314,-0.20589 -0.569625,0 -0.593639,0.18246 -0.387503,2.94339 0.231716,2.29376 0.728657,4.70916 1.678048,6.60273 0.488045,0.96257 1.077896,2.46608 1.310761,3.34114 0.232876,0.87506 0.777512,2.45017 1.210319,3.50025 0.432806,1.05007 1.001268,2.48199 1.263259,3.18204 0.261981,0.70005 0.607988,1.4876 0.76891,1.75012 0.160921,0.26252 0.543183,0.97848 0.849465,1.59102 1.253406,2.11389 2.78887,4.2149 4.043117,5.96295 0.344471,0.4912 1.187328,1.40685 2.055587,2.80009 0.868249,1.39326 1.698264,2.67639 1.844469,2.8514 0.146204,0.17501 0.302582,0.95468 0.347498,1.7326 0.07348,1.27321 -0.03659,1.52276 -1.103382,2.50004 -1.113753,1.02033 -1.254299,1.06488 -2.33657,0.74063 -0.916417,-0.27457 -1.239285,-0.5901 -1.581334,-1.54543 -0.236396,-0.66023 -0.778844,-1.62999 -1.205426,-2.15503 -0.426602,-0.52503 -1.086467,-1.35841 -1.466373,-1.85194 -0.379925,-0.49354 -0.905548,-1.14261 -1.168066,-1.4424 -0.774896,-0.88489 -2.66103,-3.88728 -3.662487,-5.83002 -0.51193,-0.99312 -1.021852,-1.74939 -1.133153,-1.6806 -0.111292,0.0688 -0.297163,1.09612 -0.413029,2.28297 -0.323613,3.31475 -0.519756,4.26648 -1.198863,5.81726 -0.812752,1.85595 -1.868343,2.95593 -4.411389,4.59687 -3.447002,2.22426 -4.663108,2.73946 -13.682768,5.79671 -6.321265,2.71862 -12.513277,4.7585 -18.595151,5.63843 -6.081874,0.87993 -13.420011,0.85008 -20.256799,0.21392 -6.836788,-0.63616 -17.058095,-4.90869 -21.572265,-7.97263 -4.51417,-3.06394 -4.65751,-9.07082 -3.04791,-12.93936 2.19981,-4.97415 6.78457,-9.26616 13.35502,-12.50225 1.225085,-0.60338 2.599198,-1.34877 3.053587,-1.65644 0.454385,-0.30766 1.313535,-0.63696 1.909223,-0.7318 1.163289,-0.18518 1.477448,-0.25744 7.765344,-1.78622 2.275157,-0.55316 4.975827,-1.05624 6.001484,-1.11794 1.02566,-0.0618 2.061977,-0.27582 2.302927,-0.47579 0.24095,-0.19997 0.623526,-0.29243 0.850171,-0.20545 0.226644,0.087 1.163028,0.0394 2.080852,-0.10567 7.916084,-1.25136 27.5319,-1.81583 30.449272,-0.87622 3.390392,1.09196 8.651644,3.91607 10.421176,5.59382 0.935082,0.88657 1.087551,0.66026 0.525583,-0.78015 -0.837691,-2.14715 -3.122385,-10.70026 -3.596698,-13.46483 -0.28526,-1.66262 -0.759035,-5.22167 -1.052837,-7.90902 -0.473189,-4.32807 -0.487876,-5.63631 -0.128624,-11.45534 0.482596,-7.81673 0.562068,-8.68153 0.969219,-10.54679 0.17191,-0.78756 0.518901,-2.43426 0.771108,-3.65935 1.313575,-6.38083 3.953185,-14.37885 6.248548,-18.93313 0.749758,-1.4876 1.980501,-3.93406 2.734992,-5.43658 3.318159,-5.995202 7.544287,-12.076192 10.950359,-16.733248 1.557379,-2.139821 7.617959,-8.695944 8.0386842,-8.695944 0.1910416,0 1.6465059,-1.311745 3.234363,-2.914985 4.668259,-4.713484 9.8313877,-8.497206 19.1154218,-14.008487 7.519634,-4.463872 10.283364,-5.982539 15.788638,-8.675836 2.733331,-1.337202 5.289492,-2.771685 5.680356,-3.187737 0.574338,-0.611359 0.955984,-0.732057 1.98957,-0.629238 0.703399,0.07001 1.472647,0.288034 1.70945,0.484565 0.684298,0.567904 0.849943,2.249005 0.342457,3.475412 -0.253469,0.612543 -0.564414,1.901268 -0.690989,2.863835 -0.126566,0.962567 -0.417444,2.1081 -0.646392,2.545631 -0.743354,1.42059 -2.067778,5.103978 -2.556589,7.110174 -0.653282,2.681205 -0.940053,10.890019 -0.48528,13.891278 0.198887,1.312591 0.569376,4.462809 0.823292,7.000484 0.470346,4.700527 0.982853,7.63915 1.519573,8.712869 0.164581,0.329271 0.570619,1.734867 0.902307,3.123548 0.581149,2.433225 1.240736,4.262669 2.600879,7.213949 0.640623,1.39006 0.640623,1.39006 3.696484,1.17709 2.301847,-0.16042 3.644717,-0.0842 5.442379,0.30899 5.316073,1.16268 6.352532,1.2951 9.864319,1.2602 2.285887,-0.0228 4.324937,-0.22643 5.432684,-0.54278 3.198058,-0.91331 6.710979,-3.66012 8.132376,-6.358824 0.694993,-2.509515 0.601706,-4.941389 -0.335948,-7.136597 -0.947952,-2.219317 -2.80076,-4.388005 -4.822624,-5.195184 -2.272283,-0.850171 -7.551544,-1.141377 -11.90673,-0.656782 -1.837627,0.204466 -4.041586,0.439618 -4.897704,0.52256 -0.856107,0.08293 -2.144833,0.364632 -2.863834,0.625977 -2.913695,1.337742 -6.59029,1.833693 -8.192039,1.137966 -1.601749,-0.695727 -2.184042,-1.597065 -2.184042,-2.785019 0,-1.645025 3.305552,-3.03305 10.286278,-4.319279 2.753745,-0.507386 4.919043,-0.659 9.601462,-0.672285 9.069048,-0.02576 12.435038,0.640663 17.441956,3.453197 1.786316,1.003426 4.213197,3.451905 4.945802,4.989814 1.610877,3.381612 2.052852,9.360046 0.953597,12.899086 z m -119.865081,78.65727 c -3.081601,-4.76627 -6.974197,-5.37723 -12.461083,-6.34487 -5.486886,-0.96764 -16.120614,-1.35528 -30.089524,1.42571 -8.460506,1.68435 -13.336069,3.90609 -18.169857,7.98524 -3.117621,2.63091 -4.726588,6.02078 -4.709468,8.07647 0.0108,1.29761 0.26477,3.29855 3.956096,5.70711 3.69133,2.40856 9.252701,4.91158 13.636811,5.62056 4.384111,0.70898 12.808907,0.57489 18.046401,-0.41208 5.237494,-0.98698 17.873896,-6.01698 21.745453,-7.68535 3.871556,-1.66837 5.219969,-3.48508 6.585063,-4.61032 4.148464,-3.66467 3.588514,-5.93007 1.460108,-9.76247 z m 79.025548,-2.70473 c -1.311815,5.16738 -4.769309,8.94277 -10.149052,11.08218 -3.848486,1.53047 -10.846862,1.74221 -12.729257,0.38512 -0.369494,-0.26639 -1.419378,-0.99777 -2.33309,-1.6253 -1.406401,-0.96591 -1.852543,-1.53994 -2.907826,-3.74137 -2.409569,-5.02661 -2.447018,-9.2103 -0.11349,-12.67708 1.913927,-2.84339 3.18539,-4.10216 5.63721,-5.58094 6.79389,-4.09762 9.258329,-4.6755 12.732897,-2.98569 1.047467,0.50942 2.721836,1.07621 3.720827,1.25955 3.449906,0.63311 5.201787,2.06412 6.244621,5.10085 0.479861,1.39739 0.417384,6.73345 -0.10284,8.78268 z"
       id="path170"
       sodipodi:nodetypes="sssssssccsscccsszccczcssszcczzsssscccsssscsssssssssssssssssssssssssscssssssssssssscssssssssssscssssssssssssssssssssssccscssssccsssssssssssssssssssssscccsssssssssssccssccscczscczcssssssscccsssssssccssszcszzzcsssssssssscssssssssssssssssssssszzzzsssssssssssssssssssssssssssssssszzssssssssssscczczccccssssszzzssssssssssssssssssssssssssssscsssssssssssssssssssssssszzzssssscsssccssccsssssccssssccssssssssssssssczzzcsssscsscssssssscsccssssscsssssssscssccscscssczsscsssczssszzzzccsssssssssss" />
  </g>
</svg>
